<svg width="106.070068" height="36.000000" viewBox="0 0 106.07 36" fill="none" xmlns="http://www.w3.org/2000/svg" xmlns:xlink="http://www.w3.org/1999/xlink">
	<desc>
			Created with Pixso.
	</desc>
	<defs>
		<clipPath id="clip45_153">
			<rect id="bcac6149-ca58-45cb-bdb1-70f2cdab6d92" rx="0.000000" width="105.069992" height="35.000000" transform="translate(0.500000 0.500000)" fill="white" fill-opacity="0"/>
		</clipPath>
	</defs>
	<rect id="bcac6149-ca58-45cb-bdb1-70f2cdab6d92" rx="0.000000" width="105.069992" height="35.000000" transform="translate(0.500000 0.500000)" fill="#FFFFFF" fill-opacity="0"/>
	<g clip-path="url(#clip45_153)">
		<path id="Vector" d="M91.22 35.97C90.75 35.82 90.22 35.68 89.79 35.5C89.07 35.24 88.44 34.78 87.98 34.18C87.51 33.57 87.23 32.85 87.16 32.09C88.05 32.09 88.96 32.09 89.84 32.09C89.97 32.09 90.12 32.34 90.2 32.5C90.52 33.02 91.04 33.41 91.64 33.56C92.24 33.72 92.88 33.65 93.42 33.36C93.58 33.26 93.72 33.13 93.8 32.97C93.89 32.8 93.93 32.62 93.93 32.44C93.92 32.25 93.86 32.08 93.75 31.92C93.65 31.77 93.5 31.65 93.33 31.58C92.6 31.26 91.8 31.08 91.04 30.83C90.41 30.66 89.79 30.44 89.2 30.19C88.7 29.97 88.27 29.62 87.96 29.19C87.64 28.75 87.45 28.24 87.39 27.7C87.34 27.16 87.43 26.62 87.65 26.13C87.87 25.64 88.22 25.22 88.66 24.91C89.61 24.27 90.72 23.92 91.86 23.9C93 23.87 94.12 24.17 95.09 24.76C95.58 25.09 95.99 25.54 96.27 26.06C96.55 26.58 96.7 27.16 96.71 27.76L94.01 27.76C93.33 26.45 92.59 26.01 91.31 26.36C91.1 26.42 90.89 26.53 90.72 26.68C90.55 26.83 90.41 27.02 90.31 27.23C90.08 27.79 90.52 28.23 91.05 28.37C92.26 28.77 93.47 29.09 94.65 29.51C95.2 29.68 95.68 30 96.06 30.43C96.43 30.86 96.67 31.39 96.77 31.95C96.86 32.52 96.8 33.09 96.59 33.62C96.38 34.15 96.02 34.61 95.56 34.96C95.05 35.27 94.51 35.53 93.96 35.75C93.72 35.86 93.43 35.91 93.18 36C92.52 35.97 91.86 35.97 91.22 35.97Z" fill="#020202" fill-opacity="1.000000" fill-rule="nonzero"/>
		<path id="Vector" d="M48.6 35.97C48.13 35.82 47.64 35.7 47.17 35.5C46.45 35.24 45.82 34.78 45.34 34.18C44.87 33.57 44.57 32.85 44.49 32.09C45.49 32.09 46.36 32.09 47.24 32.09C47.36 32.09 47.51 32.34 47.6 32.49C47.91 33.02 48.42 33.4 49.02 33.56C49.62 33.72 50.25 33.65 50.8 33.34C50.94 33.24 51.06 33.1 51.16 32.95C51.25 32.79 51.3 32.62 51.33 32.43C51.3 32.26 51.24 32.09 51.14 31.95C51.04 31.8 50.91 31.68 50.76 31.6C50.01 31.29 49.24 31.03 48.47 30.82C47.81 30.64 47.16 30.42 46.54 30.16C46.06 29.95 45.65 29.62 45.35 29.21C45.04 28.8 44.84 28.31 44.77 27.8C44.71 27.29 44.77 26.77 44.96 26.3C45.15 25.82 45.46 25.4 45.87 25.08C46.86 24.33 48.06 23.92 49.3 23.9C50.53 23.88 51.75 24.25 52.77 24.96C53.17 25.29 53.49 25.71 53.72 26.19C53.94 26.66 54.05 27.18 54.05 27.71L51.41 27.71C50.7 26.41 50.17 26.11 48.9 26.27C48.33 26.35 47.8 26.55 47.68 27.21C47.58 27.87 48.04 28.21 48.57 28.36C49.72 28.74 50.88 29.04 52.03 29.45C52.77 29.65 53.41 30.13 53.81 30.78C54.21 31.44 54.34 32.23 54.17 32.99C54.05 33.62 53.74 34.2 53.29 34.67C52.84 35.14 52.27 35.47 51.64 35.63C51.3 35.75 50.93 35.84 50.57 35.95L48.6 35.97Z" fill="#020202" fill-opacity="1.000000" fill-rule="nonzero"/>
		<path id="Vector" d="M91.66 0L92.18 0.28C92.38 0.38 92.56 0.53 92.7 0.71C92.84 0.89 92.94 1.1 92.99 1.32C93.05 1.54 93.06 1.77 93.02 2C92.98 2.22 92.9 2.43 92.78 2.63C92.5 3.03 92.07 3.31 91.58 3.41C91.1 3.5 90.6 3.4 90.18 3.14C90 3.02 89.83 2.88 89.7 2.7C89.57 2.52 89.48 2.32 89.43 2.11C89.38 1.89 89.38 1.67 89.42 1.46C89.46 1.24 89.54 1.04 89.66 0.86C90 0.52 90.37 0.23 90.78 0L91.66 0Z" fill="#020202" fill-opacity="1.000000" fill-rule="nonzero"/>
		<path id="Vector" d="M1.43 34.63C1.43 34.52 1.52 34.3 1.59 34.08C2 32.95 2.37 31.8 2.81 30.67C2.94 30.42 2.98 30.15 2.93 29.88C2.87 29.61 2.73 29.37 2.52 29.2C1.75 28.44 1.02 27.64 0.33 26.8C0.22 26.66 0.13 26.5 0.07 26.33C0.02 26.16 0 25.97 0.02 25.8C0.12 25.63 0.26 25.49 0.42 25.38C0.57 25.27 0.76 25.2 0.94 25.18C2.38 24.92 3.84 24.78 5.28 24.54C5.62 24.47 5.91 24.29 6.11 24.03C6.96 22.86 7.76 21.67 8.55 20.46C8.84 20.04 9.21 19.66 9.72 19.85C10.06 20.03 10.31 20.34 10.43 20.7C10.86 21.7 11.22 22.83 11.57 23.89C11.61 24.07 11.71 24.23 11.86 24.35C12 24.47 12.18 24.53 12.36 24.54C13.67 24.69 14.96 24.89 16.25 25.11C16.56 25.18 17.08 25.43 17.09 25.63C17.09 25.81 17.05 26 16.97 26.17C16.9 26.34 16.78 26.5 16.64 26.63C15.59 27.53 14.51 28.41 13.39 29.24C13.16 29.39 12.96 29.61 12.84 29.87C12.72 30.13 12.68 30.42 12.72 30.71C12.77 31.89 12.77 33.08 12.72 34.25C12.66 35.43 12.01 35.71 11.1 35.25C10.21 34.81 9.04 34.18 8.05 33.59C7.82 33.43 7.54 33.35 7.26 33.35C6.97 33.35 6.69 33.43 6.45 33.59C5.16 34.23 3.85 34.82 2.53 35.39C1.93 35.63 1.44 35.34 1.43 34.63Z" fill="#131CAA" fill-opacity="1.000000" fill-rule="nonzero"/>
		<path id="Vector" d="M14.95 18.27C15.06 17.91 15.24 17.44 15.38 16.95C15.68 16.04 15.98 15.14 16.32 14.25C16.44 14.03 16.48 13.78 16.44 13.53C16.39 13.29 16.26 13.07 16.06 12.92C15.27 12.14 14.53 11.31 13.82 10.46C13.6 10.2 13.38 9.7 13.49 9.46C13.59 9.28 13.74 9.12 13.91 9.01C14.08 8.89 14.28 8.81 14.49 8.78C15.92 8.52 17.38 8.37 18.82 8.14C19.15 8.07 19.45 7.89 19.65 7.63C20.51 6.47 21.27 5.26 22.12 4.11C22.25 3.93 22.41 3.78 22.6 3.68C22.78 3.57 22.99 3.5 23.21 3.49C23.48 3.49 23.82 3.99 23.97 4.34C24.38 5.34 24.74 6.45 25.09 7.52C25.14 7.7 25.24 7.86 25.39 7.98C25.54 8.1 25.72 8.16 25.9 8.17C27.23 8.33 28.55 8.52 29.9 8.76C30.21 8.82 30.61 9.05 30.67 9.29C30.69 9.45 30.67 9.62 30.61 9.78C30.55 9.93 30.45 10.07 30.32 10.18C29.27 11.11 28.15 12 27.04 12.85C26.78 13.01 26.57 13.25 26.44 13.53C26.31 13.81 26.26 14.12 26.3 14.43C26.36 15.58 26.35 16.75 26.3 17.91C26.26 19.07 25.59 19.36 24.68 18.91C23.59 18.34 22.53 17.7 21.42 17.16C21.25 17.08 21.07 17.05 20.88 17.05C20.69 17.05 20.51 17.08 20.33 17.16C18.93 17.75 17.58 18.41 16.2 19.03C15.48 19.29 14.95 19 14.95 18.27Z" fill="#131CAA" fill-opacity="1.000000" fill-rule="nonzero"/>
		<path id="Vector" d="M23.08 34.58C23.21 34.16 23.4 33.58 23.58 33.07C23.88 32.16 24.23 31.27 24.47 30.35C24.5 30.19 24.5 30.03 24.47 29.87C24.44 29.71 24.38 29.57 24.29 29.44C23.53 28.54 22.68 27.69 21.93 26.78C21.71 26.53 21.49 26.04 21.61 25.78C21.71 25.6 21.85 25.45 22.01 25.33C22.17 25.21 22.36 25.13 22.56 25.09C23.97 24.83 25.41 24.69 26.82 24.45C27.19 24.37 27.53 24.16 27.76 23.86C28.6 22.73 29.34 21.52 30.19 20.4C30.31 20.22 30.48 20.08 30.66 19.98C30.85 19.87 31.05 19.81 31.27 19.79C31.54 19.79 31.87 20.31 32.03 20.66C32.45 21.66 32.83 22.77 33.18 23.85C33.22 24.03 33.31 24.19 33.46 24.31C33.6 24.42 33.78 24.49 33.97 24.5C35.29 24.65 36.62 24.84 37.97 25.09C38.25 25.15 38.68 25.39 38.74 25.61C38.74 25.77 38.72 25.94 38.65 26.1C38.59 26.25 38.49 26.39 38.37 26.51C37.27 27.46 36.13 28.38 34.96 29.27C34.73 29.42 34.55 29.63 34.44 29.88C34.32 30.13 34.29 30.4 34.33 30.68C34.39 31.81 34.39 32.95 34.39 34.08C34.39 35.21 33.72 35.73 32.64 35.15C31.56 34.57 30.58 33.99 29.52 33.48C29.35 33.39 29.16 33.35 28.98 33.34C28.79 33.33 28.6 33.36 28.43 33.43C27.03 34.02 25.68 34.7 24.3 35.3C23.59 35.63 23.08 35.34 23.08 34.58Z" fill="#131CAA" fill-opacity="1.000000" fill-rule="nonzero"/>
		<path id="Vector" d="M82.78 7.27L79.61 7.27L79.61 16.44L76.61 16.44L76.61 7.3L75.34 7.24L75.34 4.85L76.57 4.85C76.64 3.37 76.69 1.9 78.04 0.95C79.06 0.32 80.27 0.04 81.48 0.15L81.48 2.51C79.62 3.22 79.48 3.38 79.68 4.8L82.76 4.8C82.82 3.31 82.89 1.8 84.38 0.85C85.38 0.28 86.53 0.05 87.68 0.17L87.68 2.54C85.88 3.08 85.68 3.28 85.86 4.83L87.78 4.83L87.78 7.25L85.78 7.25L85.78 16.45L82.78 16.45L82.78 7.27Z" fill="#020202" fill-opacity="1.000000" fill-rule="nonzero"/>
		<path id="Vector" d="M70.33 10.68C70.37 10.12 70.27 9.57 70.03 9.06C69.8 8.56 69.44 8.12 69 7.8C68.49 7.45 67.9 7.26 67.29 7.26C66.68 7.26 66.09 7.45 65.58 7.8C65.01 8.23 64.58 8.83 64.34 9.51C64.11 10.2 64.08 10.94 64.26 11.64C64.39 12.24 64.7 12.8 65.15 13.23C65.6 13.67 66.16 13.96 66.78 14.07C68.78 14.42 70.33 12.94 70.33 10.68ZM73.28 16.46L70.34 16.46L70.34 15.07C70.21 15.07 70.13 15.07 70.08 15.14C69.46 15.8 68.66 16.28 67.78 16.53C66.9 16.78 65.97 16.79 65.09 16.56C64.2 16.33 63.4 15.86 62.76 15.21C62.12 14.56 61.66 13.74 61.45 12.86C60.96 11.33 61 9.69 61.54 8.18C61.82 7.33 62.33 6.56 63 5.95C63.68 5.35 64.5 4.94 65.39 4.76C66.27 4.57 67.19 4.63 68.05 4.91C68.91 5.19 69.68 5.7 70.29 6.38L70.29 4.88L73.29 4.88L73.28 16.46Z" fill="#020202" fill-opacity="1.000000" fill-rule="nonzero"/>
		<path id="Vector" d="M73.13 29.96C73.17 29.4 73.06 28.84 72.82 28.34C72.59 27.83 72.23 27.39 71.78 27.07C71.27 26.72 70.68 26.53 70.07 26.53C69.45 26.53 68.86 26.72 68.36 27.07C67.78 27.5 67.35 28.1 67.12 28.79C66.88 29.47 66.85 30.21 67.04 30.91C67.15 31.51 67.45 32.07 67.89 32.51C68.33 32.95 68.89 33.25 69.5 33.37C71.58 33.71 73.15 32.23 73.13 29.96ZM76.13 35.75L73.21 35.75L73.21 34.34C73.07 34.34 73 34.34 72.94 34.41C72.32 35.09 71.52 35.58 70.64 35.84C69.75 36.1 68.82 36.11 67.93 35.88C67.04 35.64 66.22 35.17 65.58 34.52C64.93 33.86 64.48 33.04 64.26 32.15C63.78 30.62 63.82 28.98 64.36 27.48C64.64 26.62 65.15 25.85 65.82 25.24C66.5 24.64 67.32 24.23 68.21 24.05C69.09 23.86 70.01 23.92 70.87 24.2C71.73 24.48 72.5 24.99 73.11 25.67L73.11 24.15L76.11 24.15L76.13 35.75Z" fill="#020202" fill-opacity="1.000000" fill-rule="nonzero"/>
		<path id="Vector" d="M106.07 8.78C105.07 8.78 104.2 8.78 103.29 8.78C103.18 8.75 103.07 8.71 102.98 8.64C102.89 8.58 102.81 8.5 102.76 8.41C102.54 7.98 102.19 7.64 101.78 7.41C101.36 7.19 100.88 7.09 100.41 7.15C99.93 7.15 99.47 7.29 99.08 7.55C98.7 7.82 98.4 8.2 98.23 8.64C97.95 9.27 97.81 9.95 97.81 10.64C97.81 11.32 97.95 12 98.23 12.64C98.4 13.09 98.72 13.48 99.13 13.75C99.54 14.02 100.02 14.16 100.52 14.15C100.97 14.2 101.42 14.11 101.83 13.9C102.23 13.69 102.56 13.36 102.78 12.97C102.82 12.87 102.89 12.79 102.97 12.73C103.05 12.66 103.14 12.62 103.25 12.6C104.17 12.6 105.1 12.6 106.04 12.6C105.84 13.65 105.32 14.61 104.54 15.35C103.76 16.08 102.76 16.54 101.7 16.67C99.29 16.95 97.16 16.39 95.83 14.25C95.14 13.21 94.77 12 94.76 10.76C94.74 9.52 95.08 8.3 95.74 7.25C96.36 6.26 97.26 5.49 98.34 5.04C99.41 4.59 100.6 4.48 101.74 4.73C102.8 4.84 103.79 5.3 104.58 6.03C105.36 6.76 105.88 7.72 106.07 8.78Z" fill="#020202" fill-opacity="1.000000" fill-rule="nonzero"/>
		<path id="Vector" d="M57.1 26.59C56.61 26.59 56.2 26.51 55.76 26.48L55.76 24.15L57.1 24.05L57.1 21.27L60.1 21.27L60.1 24.09L62.7 24.09L62.7 26.51L60.12 26.51L60.12 32.24C60.11 32.37 60.13 32.5 60.18 32.63C60.22 32.76 60.3 32.87 60.39 32.97C60.49 33.06 60.6 33.14 60.73 33.18C60.86 33.23 60.99 33.25 61.12 33.24C61.62 33.24 62.13 33.24 62.66 33.24L62.66 35.75C61.31 35.93 59.94 35.77 58.66 35.29C58.25 35.09 57.9 34.79 57.65 34.41C57.39 34.04 57.24 33.6 57.22 33.15C57.11 31.82 57.13 30.49 57.1 29.15C57.1 28.33 57.1 27.46 57.1 26.59Z" fill="#020202" fill-opacity="1.000000" fill-rule="nonzero"/>
		<path id="Vector" d="M44.25 7.24L44.25 4.88L45.6 4.8L45.6 2.02L48.6 2.02L48.6 4.83L51.17 4.83L51.17 7.24L48.6 7.24L48.6 12.8C48.6 13.72 48.91 14.01 49.84 14.04L51.17 14.04L51.17 16.61C49.98 16.56 48.78 16.42 47.6 16.2C47.07 16.07 46.59 15.76 46.25 15.32C45.9 14.89 45.72 14.35 45.73 13.8C45.62 11.97 45.65 10.12 45.62 8.3L45.62 7.3C45.12 7.28 44.72 7.25 44.25 7.24Z" fill="#020202" fill-opacity="1.000000" fill-rule="nonzero"/>
		<path id="Vector" d="M59.86 7.71L58.56 7.81C58.26 7.8 57.96 7.85 57.68 7.97C57.39 8.09 57.14 8.26 56.93 8.48C56.72 8.7 56.56 8.96 56.46 9.25C56.35 9.54 56.31 9.84 56.33 10.14C56.28 11.96 56.33 13.76 56.33 15.58L56.33 16.42L53.41 16.42L53.41 4.89L56.3 4.89C56.3 5.38 56.3 5.89 56.37 6.53C56.77 5.96 57.3 5.49 57.91 5.17C58.52 4.85 59.2 4.68 59.89 4.67L59.86 7.71Z" fill="#020202" fill-opacity="1.000000" fill-rule="nonzero"/>
		<path id="Vector" d="M82.14 35.73L79.26 35.73L79.26 24.15L82.13 24.15L82.13 25.85C82.53 25.26 83.07 24.79 83.69 24.46C84.32 24.13 85.02 23.96 85.73 23.96L85.73 27.06C85.32 27.06 84.93 27.06 84.58 27.06C84.28 27.03 83.99 27.06 83.71 27.15C83.43 27.24 83.17 27.39 82.95 27.59C82.73 27.78 82.56 28.02 82.44 28.29C82.32 28.56 82.26 28.85 82.26 29.15C82.13 30.98 82.17 32.82 82.14 34.65C82.13 34.99 82.14 35.34 82.14 35.73Z" fill="#020202" fill-opacity="1.000000" fill-rule="nonzero"/>
		<path id="Vector" d="M89.78 4.88L92.66 4.88L92.66 16.45L89.78 16.45L89.78 4.88Z" fill="#020202" fill-opacity="1.000000" fill-rule="nonzero"/>
	</g>
</svg>
