<svg width="19.994141" height="20.000000" viewBox="0 0 19.9941 20" fill="none" xmlns="http://www.w3.org/2000/svg" xmlns:xlink="http://www.w3.org/1999/xlink">
	<desc>
			Created with Pixso.
	</desc>
	<defs/>
	<path id="Subtract" d="M11.38 19.9C16.25 19.22 19.99 15.05 19.99 10C19.99 4.47 15.51 0 9.99 0C4.47 0 0 4.47 0 10C0 14.97 3.63 19.1 8.39 19.87C8.91 19.95 9.45 20 9.99 20C10.46 20 10.93 19.96 11.38 19.9ZM11.38 10.2L11.38 8.02L11.38 8.02C11.38 7.5 11.81 7.08 12.33 7.08L14.08 7.08L14.08 4.54L11.4 4.54C11.4 4.54 11.39 4.54 11.39 4.54C11.39 4.54 11.39 4.54 11.38 4.54L11.38 4.54C9.73 4.54 8.39 5.88 8.39 7.54L8.39 10.2L5.91 10.2L5.91 13.14L8.39 13.14L8.39 19.87C8.91 19.95 9.45 19.99 9.99 19.99C10.46 19.99 10.93 19.96 11.38 19.9L11.38 13.14L13.65 13.14L14.08 10.2L11.38 10.2Z" fill="#FFFFFF" fill-opacity="1.000000" fill-rule="evenodd"/>
</svg>
