<svg width="20.000000" height="20.000000" viewBox="0 0 20 20" fill="none" xmlns="http://www.w3.org/2000/svg" xmlns:xlink="http://www.w3.org/1999/xlink">
	<desc>
			Created with Pixso.
	</desc>
	<defs/>
	<path id="Subtract" d="M10 20C15.52 20 20 15.52 20 10C20 4.47 15.52 0 10 0C4.47 0 0 4.47 0 10C0 15.52 4.47 20 10 20ZM16 7.46C16 5.55 14.44 4 12.53 4L7.46 4C5.55 4 4 5.55 4 7.46L4 12.53C4 14.44 5.55 16 7.46 16L12.53 16C14.44 16 16 14.44 16 12.53L16 7.46ZM10 13.14C8.28 13.14 6.88 11.74 6.88 10.02C6.88 8.31 8.28 6.91 10 6.91C11.71 6.91 13.11 8.31 13.11 10.02C13.11 11.74 11.71 13.14 10 13.14ZM13.21 7.52C12.81 7.52 12.49 7.19 12.49 6.79C12.49 6.39 12.81 6.07 13.21 6.07C13.61 6.07 13.94 6.39 13.94 6.79C13.94 7.19 13.61 7.52 13.21 7.52ZM11.46 11.49C12.25 10.7 12.25 9.41 11.46 8.62C10.66 7.83 9.38 7.83 8.59 8.62C7.79 9.41 7.79 10.7 8.59 11.49C9.38 12.28 10.66 12.28 11.46 11.49Z" fill="#FFFFFF" fill-opacity="1.000000" fill-rule="evenodd"/>
</svg>
